<svg width="1920" height="480" viewBox="0 0 1920 480" fill="none" xmlns="http://www.w3.org/2000/svg">
<g clip-path="url(#clip0_66_301)">
<path d="M1920 0H0V480H1920V0Z" fill="#0C1D2D"/>
<path d="M1241.13 363.71L1269.24 335.6H1327.5L1419.81 243.29H1534.5L1627.49 150.3V95.32L1680.28 42.53H1800.5L1917.39 -74.36" stroke="#1F4ED8" stroke-width="1.4" stroke-miterlimit="10" stroke-linecap="round"/>
<path d="M1602.91 210.45H1633.5L1690.22 153.72H1851.5L1881.18 183.4H1968.5" stroke="#1F4ED8" stroke-width="1.4" stroke-miterlimit="10" stroke-linecap="round"/>
<path d="M1576.23 276.2L1596.8 296.77H1693.5L1756.13 234.14H1950.5" stroke="#1F4ED8" stroke-width="1.4" stroke-miterlimit="10" stroke-linecap="round"/>
<path d="M1165.34 343.25L1202.51 380.42H1306.5L1316.48 390.4H1371.5L1407.36 354.54H1523.5L1624.73 455.77H1729.5L1811.93 538.2" stroke="#1F4ED8" stroke-width="1.4" stroke-miterlimit="10" stroke-linecap="round"/>
<path d="M1554.5 327.79L1584.95 358.24H1645.5L1699.88 412.62H1747.5L1850.19 515.31" stroke="#1F4ED8" stroke-width="1.4" stroke-miterlimit="10" stroke-linecap="round"/>
<path d="M1856.94 411.56H1886.5L1896.73 421.79H1941.5" stroke="#1F4ED8" stroke-width="1.4" stroke-miterlimit="10" stroke-linecap="round"/>
<path d="M1291.37 261.3H1346.93L1404.56 203.67H1488.63L1553.74 138.57H1602.91L1661.95 79.53H1817.5L1839.39 57.64H1856.94L1931.54 -16.96" stroke="#1F4ED8" stroke-width="1.4" stroke-miterlimit="10" stroke-linecap="round"/>
<path d="M1429.87 98.51H1451.5L1516.76 33.26H1571.5L1637.63 -32.87" stroke="#1F4ED8" stroke-width="1.4" stroke-miterlimit="10" stroke-linecap="round"/>
<path d="M1400.5 182.83L1440.58 142.75V127.6L1493.96 74.21H1519.5L1579.11 14.61V-7.37" stroke="#1F4ED8" stroke-width="1.4" stroke-miterlimit="10" stroke-linecap="round"/>
<path d="M1421.5 442.54L1437.41 426.64H1527.5L1541.95 441.09H1637.63L1702.16 505.63" stroke="#1F4ED8" stroke-width="1.4" stroke-miterlimit="10" stroke-linecap="round"/>
<path d="M1561.83 392.87H1602.91L1618.55 408.51H1661.5L1764.7 511.71" stroke="#1F4ED8" stroke-width="1.4" stroke-miterlimit="10" stroke-linecap="round"/>
<path d="M1733.07 327.79L1751.32 309.54H1827.5L1845.23 291.81H1974.5" stroke="#1F4ED8" stroke-width="1.4" stroke-miterlimit="10" stroke-linecap="round"/>
<path d="M1820.5 338.65L1839.18 357.32H1871.5L1900.13 328.69H1993.5" stroke="#1F4ED8" stroke-width="1.4" stroke-miterlimit="10" stroke-linecap="round"/>
<path d="M1744.5 120.68L1755.46 131.64H1856.94L1893.91 94.66H1960.19" stroke="#1F4ED8" stroke-width="1.4" stroke-miterlimit="10" stroke-linecap="round"/>
<path d="M1744.5 79.53L1763.24 98.26H1864.5L1884.87 77.89H1950.5" stroke="#1F4ED8" stroke-width="1.4" stroke-miterlimit="10" stroke-linecap="round"/>
<path d="M1271.34 196L1298.92 168.42H1318.79L1356.7 130.51V92L1427.29 21.41V-19.33" stroke="#1F4ED8" stroke-width="1.4" stroke-miterlimit="10" stroke-linecap="round"/>
<path d="M1375.19 131.64V111.23L1428.87 57.55H1450.5L1520.76 -12.7" stroke="#1F4ED8" stroke-width="1.4" stroke-miterlimit="10" stroke-linecap="round"/>
<path d="M1284 147.33V122.17L1335.16 71.01V32.82L1345.95 22.02V-35" stroke="#1F4ED8" stroke-width="1.4" stroke-miterlimit="10" stroke-linecap="round"/>
<path d="M1140.55 293.82L1165.98 268.39V243.18L1236.33 172.83V122.17L1292.87 65.62V27.42L1304.9 15.4V-29" stroke="#1F4ED8" stroke-width="1.4" stroke-miterlimit="10" stroke-linecap="round"/>
<path d="M1183.42 144.68V122.17L1207.62 97.96V49.34L1222.31 34.64V-12.7" stroke="#1F4ED8" stroke-width="1.4" stroke-miterlimit="10" stroke-linecap="round"/>
<path d="M1134.97 59.47V32.82L1124.83 22.67V-7.37" stroke="#1F4ED8" stroke-width="1.4" stroke-miterlimit="10" stroke-linecap="round"/>
<path d="M1183.42 403.42L1201.65 421.65H1284L1309.77 447.42H1326.5L1386.7 507.61" stroke="#1F4ED8" stroke-width="1.4" stroke-miterlimit="10" stroke-linecap="round"/>
<path d="M1098 412.33L1150.59 464.92H1183.42L1226.86 508.36" stroke="#1F4ED8" stroke-width="1.4" stroke-miterlimit="10" stroke-linecap="round"/>
<path d="M1055.02 421.02V440.73L1040.58 455.17V522.77" stroke="#1F4ED8" stroke-width="1.4" stroke-miterlimit="10" stroke-linecap="round"/>
<path d="M947.461 412.33V427.73L963.931 444.2V522.77" stroke="#1F4ED8" stroke-width="1.4" stroke-miterlimit="10" stroke-linecap="round"/>
<path d="M989.249 466.13L969.439 485.94" stroke="#1F4ED8" stroke-width="1.4" stroke-miterlimit="10" stroke-linecap="round"/>
<path d="M904.5 399L888.72 414.78V452.29L872.48 468.53V515.31" stroke="#1F4ED8" stroke-width="1.4" stroke-miterlimit="10" stroke-linecap="round"/>
<path d="M888.721 436L906.371 453.65V531.63" stroke="#1F4ED8" stroke-width="1.4" stroke-miterlimit="10" stroke-linecap="round"/>
<path d="M841.23 446.77V532" stroke="#1F4ED8" stroke-width="1.4" stroke-miterlimit="10" stroke-linecap="round"/>
<path d="M815.269 436V460L802.439 472.84V497" stroke="#1F4ED8" stroke-width="1.4" stroke-miterlimit="10" stroke-linecap="round"/>
<path d="M801.599 399V417.57L776.609 442.56V531.63" stroke="#1F4ED8" stroke-width="1.4" stroke-miterlimit="10" stroke-linecap="round"/>
<path d="M733.501 436L720.011 422.51H616.501L590.441 448.57H412.501L331.381 529.69" stroke="#1F4ED8" stroke-width="1.4" stroke-miterlimit="10" stroke-linecap="round"/>
<path d="M635.5 381.53L614.27 402.77H522.5L508.1 417.17H447.22L418.83 388.77H372.5L310.72 450.55H268.5L208.6 510.46" stroke="#1F4ED8" stroke-width="1.4" stroke-miterlimit="10" stroke-linecap="round"/>
<path d="M782.5 346L773.15 355.35H642.5L609.32 322.18H439.76L413.72 348.22H240.5L227.26 361.46H96.5L24.73 433.23H-64.5" stroke="#1F4ED8" stroke-width="1.4" stroke-miterlimit="10" stroke-linecap="round"/>
<path d="M342.5 293.82L316.69 268.01H180.5L152.83 240.34H84.5L26.33 182.17H-57.5" stroke="#1F4ED8" stroke-width="1.4" stroke-miterlimit="10" stroke-linecap="round"/>
<path d="M393.5 293.82L368.91 318.41H307.5L268.79 279.71H187.5L118.53 348.68H-29" stroke="#1F4ED8" stroke-width="1.4" stroke-miterlimit="10" stroke-linecap="round"/>
<path d="M238.499 393.13L203.049 428.58H142.499L52.2891 518.79" stroke="#1F4ED8" stroke-width="1.4" stroke-miterlimit="10" stroke-linecap="round"/>
<path d="M299.29 221.73H221.5L187.13 187.37H75.5L42.57 154.43H-40.5" stroke="#1F4ED8" stroke-width="1.4" stroke-miterlimit="10" stroke-linecap="round"/>
<path d="M161.5 187.37L120.07 145.93H96.5L29.53 78.97H-123.5" stroke="#1F4ED8" stroke-width="1.4" stroke-miterlimit="10" stroke-linecap="round"/>
<path d="M714 268.5H665.5L612.32 215.32H454.5L423.46 184.29H319.5L268.01 132.8" stroke="#1F4ED8" stroke-width="1.4" stroke-miterlimit="10" stroke-linecap="round"/>
<path d="M669.83 173L638.5 141.67V55.97L613.93 31.39V-45.75" stroke="#1F4ED8" stroke-width="1.4" stroke-miterlimit="10" stroke-linecap="round"/>
<path d="M763.51 173L709.49 118.98V78.97L668.51 37.99V-64" stroke="#1F4ED8" stroke-width="1.4" stroke-miterlimit="10" stroke-linecap="round"/>
<path d="M712.301 55.97L731.521 36.75V-35" stroke="#1F4ED8" stroke-width="1.4" stroke-miterlimit="10" stroke-linecap="round"/>
<path d="M613.929 165.46H571.399L508.219 102.28H491.009L422.949 34.22V-11" stroke="#1F4ED8" stroke-width="1.4" stroke-miterlimit="10" stroke-linecap="round"/>
<path d="M353.5 100.73L313.8 61.03H299.29L253.34 15.07V-19.33" stroke="#1F4ED8" stroke-width="1.4" stroke-miterlimit="10" stroke-linecap="round"/>
<path d="M272.31 73.75H218.5L203.44 58.69H145.39L29.9805 -56.73" stroke="#1F4ED8" stroke-width="1.4" stroke-miterlimit="10" stroke-linecap="round"/>
<path d="M758.17 222.11H712.3L671.34 181.16H541.5L491.88 131.54H464.22L413.7 81.03H375.5L331.51 37.04V-11" stroke="#1F4ED8" stroke-width="1.4" stroke-miterlimit="10" stroke-linecap="round"/>
<path d="M381.939 0V24.56L447.219 89.83V149.28L525.499 227.56H673.059L749.499 304H817.499L859.499 346H869.499" stroke="#1F4ED8" stroke-width="1.4" stroke-miterlimit="10" stroke-linecap="round"/>
<path d="M0 251.71H42.79L109.5 318.41H209.91L234.5 293.82H524.68L569.5 338.65H775.15L792.5 356H859.5L875.67 339.83H921.67L927.87 346.04H936.5" stroke="#1F4ED8" stroke-width="1.4" stroke-miterlimit="10" stroke-linecap="round"/>
<path d="M439.76 484.26L455.5 468.52H635.02L665.5 438.05H762.55L812.5 388.1H842.6L859.5 371.2H870.83L876.01 366.01H888.19" stroke="#1F4ED8" stroke-width="1.4" stroke-miterlimit="10" stroke-linecap="round"/>
<path d="M694.41 -29V38.09L763.51 107.18V191.11L824.1 251.71V278.6L859.5 314H904.5L938.58 348.08H951.67L956.24 352.65" stroke="#1F4ED8" stroke-width="1.4" stroke-miterlimit="10" stroke-linecap="round"/>
<path d="M830.25 568V457.75L851 437V413.5L876.5 388V377.7L896.19 358.02H930.36L935.25 353.12H955.72" stroke="#1F4ED8" stroke-width="1.4" stroke-miterlimit="10" stroke-linecap="round"/>
<path d="M934.14 527V457.36L904.5 427.73V388L925.83 366.67H935.67L943.51 358.83H955.72" stroke="#1F4ED8" stroke-width="1.4" stroke-miterlimit="10" stroke-linecap="round"/>
<path d="M1020.73 527V458.77L991.501 429.55H964.681L934.141 399V388L949.201 372.93V366.33L956.211 359.32" stroke="#1F4ED8" stroke-width="1.4" stroke-miterlimit="10" stroke-linecap="round"/>
<path d="M989.25 532V446.75L1012 424V403.5L1027.5 388V373.5" stroke="#1F4ED8" stroke-width="1.4" stroke-miterlimit="10" stroke-linecap="round"/>
<path d="M1576.23 522.77L1496 442.54H1377.46L1338.33 403.42H1165.92L1127 364.5H1061.35L1043.76 346.91H1024L1016.62 354.29H992L987.32 349.6" stroke="#1F4ED8" stroke-width="1.4" stroke-miterlimit="10" stroke-linecap="round"/>
<path d="M1960.19 514.81L1838 392.62H1747.38L1682 327.24H1459.24L1353 433.48H1268.48L1248.29 453.66H1174.34L1133 412.33H1085.67L1061.35 388L1035.67 362.33H1008.38L1001.37 369.33" stroke="#1F4ED8" stroke-width="1.4" stroke-miterlimit="10" stroke-linecap="round"/>
<path d="M1364.67 -29V66.67L1271.34 160V232.34L1190 313.67H1093.67L1061.35 346H1054L1048.42 351.58" stroke="#1F4ED8" stroke-width="1.4" stroke-miterlimit="10" stroke-linecap="round"/>
<path d="M1227.67 -19.33L1165.34 43V126.34L1106.67 185V268.67L1036.51 338.84H1007L996.25 349.59H969.44L965.15 353.87" stroke="#1F4ED8" stroke-width="1.4" stroke-miterlimit="10" stroke-linecap="round"/>
<path d="M1098 364.5L1119.25 343.25H1194.83L1215.29 363.71H1346L1478.35 231.35H1582L1692.68 120.68H1820L1891.34 49.34H1983" stroke="#1F4ED8" stroke-width="1.4" stroke-miterlimit="10" stroke-linecap="round"/>
<path d="M1213.01 290.67H1262L1369.83 182.83H1428L1520.42 90.42H1603L1738.21 -44.79" stroke="#1F4ED8" stroke-width="1.4" stroke-miterlimit="10" stroke-linecap="round"/>
<path d="M1106.67 246L1150.09 202.58V178L1241.29 86.8V20L1333.14 -71.86" stroke="#1F4ED8" stroke-width="1.4" stroke-miterlimit="10" stroke-linecap="round"/>
<path d="M1106.67 314L1127.34 293.34H1174L1250.51 216.83H1290L1389.45 117.38H1411L1587.19 -58.8099" stroke="#1F4ED8" stroke-width="1.4" stroke-miterlimit="10" stroke-linecap="round"/>
<path d="M1169.59 158.5H1214.83L1312.67 60.67V-11" stroke="#1F4ED8" stroke-width="1.4" stroke-miterlimit="10" stroke-linecap="round"/>
<path d="M1433.51 276.2H1607L1673.04 210.16H1826L1871.27 255.43H1946" stroke="#1F4ED8" stroke-width="1.4" stroke-miterlimit="10" stroke-linecap="round"/>
<path d="M1121.34 512.66L1066.17 457.5V432.17L1042 408V388L1023.33 369.33H987.331L979.341 361.34H967.671L964.721 358.39" stroke="#1F4ED8" stroke-width="1.4" stroke-miterlimit="10" stroke-linecap="round"/>
<path d="M830.249 388.1V421.02L794.969 456.3H748.999L699.859 505.44" stroke="#1F4ED8" stroke-width="1.4" stroke-miterlimit="10" stroke-linecap="round"/>
<path d="M791.801 408.8L777.901 394.9H674.001L660.631 381.53H444.001L409.271 416.27H252.001L136.631 531.63" stroke="#1F4ED8" stroke-width="1.4" stroke-miterlimit="10" stroke-linecap="round"/>
<path d="M808.699 236.3H773.789L709.739 172.26H620.719L526.399 77.94V26L493.039 -7.37" stroke="#1F4ED8" stroke-width="1.4" stroke-miterlimit="10" stroke-linecap="round"/>
<path d="M763.51 142.5L777.68 128.32V49.34L758.17 29.83V-29" stroke="#1F4ED8" stroke-width="1.4" stroke-miterlimit="10" stroke-linecap="round"/>
<path d="M1165.34 89.83L1115.76 40.25V-35" stroke="#1F4ED8" stroke-width="1.4" stroke-miterlimit="10" stroke-linecap="round"/>
<path d="M473 293.82L422.62 243.44H321L242.53 164.97H88L34.27 111.23H-49" stroke="#1F4ED8" stroke-width="1.4" stroke-miterlimit="10" stroke-linecap="round"/>
<path d="M447.221 122.94L425.021 100.73H299.291L238.451 39.89H166.001L68.6309 -57.48" stroke="#1F4ED8" stroke-width="1.4" stroke-miterlimit="10" stroke-linecap="round"/>
<path d="M747 338.65L724.18 315.82H649.63L608.4 274.6H568L554.7 261.3H439.76" stroke="#1F4ED8" stroke-width="1.4" stroke-miterlimit="10" stroke-linecap="round"/>
<path d="M1587.19 327.24L1599.72 314.72H1720L1746.14 340.86H1960.19" stroke="#1F4ED8" stroke-width="1.4" stroke-miterlimit="10" stroke-linecap="round"/>
<path d="M329 416.27L305.87 393.13H123L98.57 417.57H-29" stroke="#1F4ED8" stroke-width="1.4" stroke-miterlimit="10" stroke-linecap="round"/>
<path d="M381.94 100.73L352.37 130.31H208L163.6 85.9101H119L93.42 60.3301H-99" stroke="#1F4ED8" stroke-width="1.4" stroke-miterlimit="10" stroke-linecap="round"/>
<path d="M571.399 122.94V98.5L549.949 77.05V-11" stroke="#1F4ED8" stroke-width="1.4" stroke-miterlimit="10" stroke-linecap="round"/>
<path d="M967.108 355.996L960.002 348.889L952.896 355.996L960.002 363.102L967.108 355.996Z" stroke="#1F4ED8" stroke-width="1.4" stroke-miterlimit="10" stroke-linecap="round"/>
<path d="M473 186.01C465.83 186.01 460 180.18 460 173.01C460 165.84 465.83 160.01 473 160.01C480.17 160.01 486 165.84 486 173.01C486 180.18 480.17 186.01 473 186.01Z" fill="#0C1D2D" stroke="#1F4ED8" stroke-width="1.4" stroke-miterlimit="10" stroke-linecap="round"/>
<path d="M473 164.33V181.67Z" fill="#0C1D2D"/>
<path d="M473 164.33V181.67" stroke="#1F4ED8" stroke-width="1.4" stroke-miterlimit="10" stroke-linecap="round"/>
<path d="M473 173C475.39 173 477.33 174.46 477.33 176.25C477.33 178.04 475.39 179.5 473 179.5C470.61 179.5 468.67 178.04 468.67 176.25" fill="#0C1D2D"/>
<path d="M473 173C475.39 173 477.33 174.46 477.33 176.25C477.33 178.04 475.39 179.5 473 179.5C470.61 179.5 468.67 178.04 468.67 176.25" stroke="#1F4ED8" stroke-width="1.4" stroke-miterlimit="10" stroke-linecap="round"/>
<path d="M477.33 169.75C477.33 167.96 475.39 166.5 473 166.5C470.61 166.5 468.67 167.96 468.67 169.75C468.67 171.54 470.61 173 473 173" fill="#0C1D2D"/>
<path d="M477.33 169.75C477.33 167.96 475.39 166.5 473 166.5C470.61 166.5 468.67 167.96 468.67 169.75C468.67 171.54 470.61 173 473 173" stroke="#1F4ED8" stroke-width="1.4" stroke-miterlimit="10" stroke-linecap="round"/>
<path d="M586.32 393.58C579.15 393.58 573.32 387.75 573.32 380.58C573.32 373.41 579.15 367.58 586.32 367.58C593.49 367.58 599.32 373.41 599.32 380.58C599.32 387.75 593.49 393.58 586.32 393.58Z" fill="#0C1D2D" stroke="#1F4ED8" stroke-width="1.4" stroke-miterlimit="10" stroke-linecap="round"/>
<path d="M586.32 371.9V389.24Z" fill="#0C1D2D"/>
<path d="M586.32 371.9V389.24" stroke="#1F4ED8" stroke-width="1.4" stroke-miterlimit="10" stroke-linecap="round"/>
<path d="M586.32 380.57C588.71 380.57 590.65 382.03 590.65 383.82C590.65 385.61 588.71 387.07 586.32 387.07C583.93 387.07 581.99 385.61 581.99 383.82" fill="#0C1D2D"/>
<path d="M586.32 380.57C588.71 380.57 590.65 382.03 590.65 383.82C590.65 385.61 588.71 387.07 586.32 387.07C583.93 387.07 581.99 385.61 581.99 383.82" stroke="#1F4ED8" stroke-width="1.4" stroke-miterlimit="10" stroke-linecap="round"/>
<path d="M590.65 377.32C590.65 375.53 588.71 374.07 586.32 374.07C583.93 374.07 581.99 375.53 581.99 377.32C581.99 379.11 583.93 380.57 586.32 380.57" fill="#0C1D2D"/>
<path d="M590.65 377.32C590.65 375.53 588.71 374.07 586.32 374.07C583.93 374.07 581.99 375.53 581.99 377.32C581.99 379.11 583.93 380.57 586.32 380.57" stroke="#1F4ED8" stroke-width="1.4" stroke-miterlimit="10" stroke-linecap="round"/>
<path d="M277.67 406.13C270.5 406.13 264.67 400.3 264.67 393.13C264.67 385.96 270.5 380.13 277.67 380.13C284.84 380.13 290.67 385.96 290.67 393.13C290.67 400.3 284.84 406.13 277.67 406.13Z" fill="#0C1D2D" stroke="#1F4ED8" stroke-width="1.4" stroke-miterlimit="10" stroke-linecap="round"/>
<path d="M277.67 384.46V401.8Z" fill="#0C1D2D"/>
<path d="M277.67 384.46V401.8" stroke="#1F4ED8" stroke-width="1.4" stroke-miterlimit="10" stroke-linecap="round"/>
<path d="M277.67 393.12C280.06 393.12 282 394.58 282 396.37C282 398.16 280.06 399.62 277.67 399.62C275.28 399.62 273.34 398.16 273.34 396.37" fill="#0C1D2D"/>
<path d="M277.67 393.12C280.06 393.12 282 394.58 282 396.37C282 398.16 280.06 399.62 277.67 399.62C275.28 399.62 273.34 398.16 273.34 396.37" stroke="#1F4ED8" stroke-width="1.4" stroke-miterlimit="10" stroke-linecap="round"/>
<path d="M282 389.87C282 388.08 280.06 386.62 277.67 386.62C275.28 386.62 273.34 388.08 273.34 389.87C273.34 391.66 275.28 393.12 277.67 393.12" fill="#0C1D2D"/>
<path d="M282 389.87C282 388.08 280.06 386.62 277.67 386.62C275.28 386.62 273.34 388.08 273.34 389.87C273.34 391.66 275.28 393.12 277.67 393.12" stroke="#1F4ED8" stroke-width="1.4" stroke-miterlimit="10" stroke-linecap="round"/>
<path d="M1379.85 342.87C1372.68 342.87 1366.85 337.04 1366.85 329.87C1366.85 322.7 1372.68 316.87 1379.85 316.87C1387.02 316.87 1392.85 322.7 1392.85 329.87C1392.85 337.04 1387.02 342.87 1379.85 342.87Z" fill="#0C1D2D" stroke="#1F4ED8" stroke-width="1.4" stroke-miterlimit="10" stroke-linecap="round"/>
<path d="M1379.85 321.19V338.53Z" fill="#0C1D2D"/>
<path d="M1379.85 321.19V338.53" stroke="#1F4ED8" stroke-width="1.4" stroke-miterlimit="10" stroke-linecap="round"/>
<path d="M1379.85 329.85C1382.24 329.85 1384.18 331.31 1384.18 333.1C1384.18 334.89 1382.24 336.35 1379.85 336.35C1377.46 336.35 1375.52 334.89 1375.52 333.1" fill="#0C1D2D"/>
<path d="M1379.85 329.85C1382.24 329.85 1384.18 331.31 1384.18 333.1C1384.18 334.89 1382.24 336.35 1379.85 336.35C1377.46 336.35 1375.52 334.89 1375.52 333.1" stroke="#1F4ED8" stroke-width="1.4" stroke-miterlimit="10" stroke-linecap="round"/>
<path d="M1384.19 326.6C1384.19 324.81 1382.25 323.35 1379.86 323.35C1377.47 323.35 1375.53 324.81 1375.53 326.6C1375.53 328.39 1377.47 329.85 1379.86 329.85" fill="#0C1D2D"/>
<path d="M1384.19 326.6C1384.19 324.81 1382.25 323.35 1379.86 323.35C1377.47 323.35 1375.53 324.81 1375.53 326.6C1375.53 328.39 1377.47 329.85 1379.86 329.85" stroke="#1F4ED8" stroke-width="1.4" stroke-miterlimit="10" stroke-linecap="round"/>
<path d="M1802.33 405.63C1795.16 405.63 1789.33 399.8 1789.33 392.63C1789.33 385.46 1795.16 379.63 1802.33 379.63C1809.5 379.63 1815.33 385.46 1815.33 392.63C1815.33 399.8 1809.5 405.63 1802.33 405.63Z" fill="#0C1D2D" stroke="#1F4ED8" stroke-width="1.4" stroke-miterlimit="10" stroke-linecap="round"/>
<path d="M1802.33 383.95V401.29Z" fill="#0C1D2D"/>
<path d="M1802.33 383.95V401.29" stroke="#1F4ED8" stroke-width="1.4" stroke-miterlimit="10" stroke-linecap="round"/>
<path d="M1802.33 392.62C1804.72 392.62 1806.66 394.08 1806.66 395.87C1806.66 397.66 1804.72 399.12 1802.33 399.12C1799.94 399.12 1798 397.66 1798 395.87" fill="#0C1D2D"/>
<path d="M1802.33 392.62C1804.72 392.62 1806.66 394.08 1806.66 395.87C1806.66 397.66 1804.72 399.12 1802.33 399.12C1799.94 399.12 1798 397.66 1798 395.87" stroke="#1F4ED8" stroke-width="1.4" stroke-miterlimit="10" stroke-linecap="round"/>
<path d="M1806.67 389.37C1806.67 387.58 1804.73 386.12 1802.34 386.12C1799.95 386.12 1798.01 387.58 1798.01 389.37C1798.01 391.16 1799.95 392.62 1802.34 392.62" fill="#0C1D2D"/>
<path d="M1806.67 389.37C1806.67 387.58 1804.73 386.12 1802.34 386.12C1799.95 386.12 1798.01 387.58 1798.01 389.37C1798.01 391.16 1799.95 392.62 1802.34 392.62" stroke="#1F4ED8" stroke-width="1.4" stroke-miterlimit="10" stroke-linecap="round"/>
<path d="M1793 135.69C1784.73 135.69 1778 128.96 1778 120.69C1778 112.42 1784.73 105.69 1793 105.69C1801.27 105.69 1808 112.42 1808 120.69C1808 128.96 1801.27 135.69 1793 135.69Z" fill="#0C1D2D" stroke="#1F4ED8" stroke-width="1.4" stroke-miterlimit="10" stroke-linecap="round"/>
<path d="M1793 110.68V130.69Z" fill="#0C1D2D"/>
<path d="M1793 110.68V130.69" stroke="#1F4ED8" stroke-width="1.4" stroke-miterlimit="10" stroke-linecap="round"/>
<path d="M1793 120.68C1795.76 120.68 1798 122.36 1798 124.43C1798 126.5 1795.76 128.18 1793 128.18C1790.24 128.18 1788 126.5 1788 124.43" fill="#0C1D2D"/>
<path d="M1793 120.68C1795.76 120.68 1798 122.36 1798 124.43C1798 126.5 1795.76 128.18 1793 128.18C1790.24 128.18 1788 126.5 1788 124.43" stroke="#1F4ED8" stroke-width="1.4" stroke-miterlimit="10" stroke-linecap="round"/>
<path d="M1798 116.93C1798 114.86 1795.76 113.18 1793 113.18C1790.24 113.18 1788 114.86 1788 116.93C1788 119 1790.24 120.68 1793 120.68" fill="#0C1D2D"/>
<path d="M1798 116.93C1798 114.86 1795.76 113.18 1793 113.18C1790.24 113.18 1788 114.86 1788 116.93C1788 119 1790.24 120.68 1793 120.68" stroke="#1F4ED8" stroke-width="1.4" stroke-miterlimit="10" stroke-linecap="round"/>
<path d="M108.5 180.01C100.23 180.01 93.5 173.28 93.5 165.01C93.5 156.74 100.23 150.01 108.5 150.01C116.77 150.01 123.5 156.74 123.5 165.01C123.5 173.28 116.77 180.01 108.5 180.01Z" fill="#0C1D2D" stroke="#1F4ED8" stroke-width="1.4" stroke-miterlimit="10" stroke-linecap="round"/>
<path d="M108.5 155V175.01Z" fill="#0C1D2D"/>
<path d="M108.5 155V175.01" stroke="#1F4ED8" stroke-width="1.4" stroke-miterlimit="10" stroke-linecap="round"/>
<path d="M108.5 165C111.26 165 113.5 166.68 113.5 168.75C113.5 170.82 111.26 172.5 108.5 172.5C105.74 172.5 103.5 170.82 103.5 168.75" fill="#0C1D2D"/>
<path d="M108.5 165C111.26 165 113.5 166.68 113.5 168.75C113.5 170.82 111.26 172.5 108.5 172.5C105.74 172.5 103.5 170.82 103.5 168.75" stroke="#1F4ED8" stroke-width="1.4" stroke-miterlimit="10" stroke-linecap="round"/>
<path d="M113.5 161.25C113.5 159.18 111.26 157.5 108.5 157.5C105.74 157.5 103.5 159.18 103.5 161.25C103.5 163.32 105.74 165 108.5 165" fill="#0C1D2D"/>
<path d="M113.5 161.25C113.5 159.18 111.26 157.5 108.5 157.5C105.74 157.5 103.5 159.18 103.5 161.25C103.5 163.32 105.74 165 108.5 165" stroke="#1F4ED8" stroke-width="1.4" stroke-miterlimit="10" stroke-linecap="round"/>
<path d="M1209.82 267.52C1204.31 267.52 1199.82 263.03 1199.82 257.52C1199.82 252.01 1204.31 247.52 1209.82 247.52C1215.33 247.52 1219.82 252.01 1219.82 257.52C1219.82 263.03 1215.33 267.52 1209.82 267.52Z" fill="#0C1D2D" stroke="#1F4ED8" stroke-width="1.4" stroke-miterlimit="10" stroke-linecap="round"/>
<path d="M1209.82 250.85V264.19Z" fill="#0C1D2D"/>
<path d="M1209.82 250.85V264.19" stroke="#1F4ED8" stroke-width="1.4" stroke-miterlimit="10" stroke-linecap="round"/>
<path d="M1209.82 257.52C1211.66 257.52 1213.15 258.64 1213.15 260.02C1213.15 261.4 1211.66 262.52 1209.82 262.52C1207.98 262.52 1206.49 261.4 1206.49 260.02" fill="#0C1D2D"/>
<path d="M1209.82 257.52C1211.66 257.52 1213.15 258.64 1213.15 260.02C1213.15 261.4 1211.66 262.52 1209.82 262.52C1207.98 262.52 1206.49 261.4 1206.49 260.02" stroke="#1F4ED8" stroke-width="1.4" stroke-miterlimit="10" stroke-linecap="round"/>
<path d="M1213.15 255.02C1213.15 253.64 1211.66 252.52 1209.82 252.52C1207.98 252.52 1206.49 253.64 1206.49 255.02C1206.49 256.4 1207.98 257.52 1209.82 257.52" fill="#0C1D2D"/>
<path d="M1213.15 255.02C1213.15 253.64 1211.66 252.52 1209.82 252.52C1207.98 252.52 1206.49 253.64 1206.49 255.02C1206.49 256.4 1207.98 257.52 1209.82 257.52" stroke="#1F4ED8" stroke-width="1.4" stroke-miterlimit="10" stroke-linecap="round"/>
<path d="M650.871 237.57C645.361 237.57 640.871 233.08 640.871 227.57C640.871 222.06 645.361 217.57 650.871 217.57C656.381 217.57 660.871 222.06 660.871 227.57C660.871 233.08 656.381 237.57 650.871 237.57Z" fill="#0C1D2D" stroke="#1F4ED8" stroke-width="1.4" stroke-miterlimit="10" stroke-linecap="round"/>
<path d="M650.871 220.89V234.23Z" fill="#0C1D2D"/>
<path d="M650.871 220.89V234.23" stroke="#1F4ED8" stroke-width="1.4" stroke-miterlimit="10" stroke-linecap="round"/>
<path d="M650.871 227.56C652.711 227.56 654.201 228.68 654.201 230.06C654.201 231.44 652.711 232.56 650.871 232.56C649.031 232.56 647.541 231.44 647.541 230.06" fill="#0C1D2D"/>
<path d="M650.871 227.56C652.711 227.56 654.201 228.68 654.201 230.06C654.201 231.44 652.711 232.56 650.871 232.56C649.031 232.56 647.541 231.44 647.541 230.06" stroke="#1F4ED8" stroke-width="1.4" stroke-miterlimit="10" stroke-linecap="round"/>
<path d="M654.201 225.06C654.201 223.68 652.711 222.56 650.871 222.56C649.031 222.56 647.541 223.68 647.541 225.06C647.541 226.44 649.031 227.56 650.871 227.56" fill="#0C1D2D"/>
<path d="M654.201 225.06C654.201 223.68 652.711 222.56 650.871 222.56C649.031 222.56 647.541 223.68 647.541 225.06C647.541 226.44 649.031 227.56 650.871 227.56" stroke="#1F4ED8" stroke-width="1.4" stroke-miterlimit="10" stroke-linecap="round"/>
<path d="M1184.79 33.5601C1179.28 33.5601 1174.79 29.0701 1174.79 23.5601C1174.79 18.0501 1179.28 13.5601 1184.79 13.5601C1190.3 13.5601 1194.79 18.0501 1194.79 23.5601C1194.79 29.0701 1190.3 33.5601 1184.79 33.5601Z" fill="#0C1D2D" stroke="#1F4ED8" stroke-width="1.4" stroke-miterlimit="10" stroke-linecap="round"/>
<path d="M1184.79 16.88V30.22Z" fill="#0C1D2D"/>
<path d="M1184.79 16.88V30.22" stroke="#1F4ED8" stroke-width="1.4" stroke-miterlimit="10" stroke-linecap="round"/>
<path d="M1184.79 23.55C1186.63 23.55 1188.12 24.67 1188.12 26.05C1188.12 27.43 1186.63 28.55 1184.79 28.55C1182.95 28.55 1181.46 27.43 1181.46 26.05" fill="#0C1D2D"/>
<path d="M1184.79 23.55C1186.63 23.55 1188.12 24.67 1188.12 26.05C1188.12 27.43 1186.63 28.55 1184.79 28.55C1182.95 28.55 1181.46 27.43 1181.46 26.05" stroke="#1F4ED8" stroke-width="1.4" stroke-miterlimit="10" stroke-linecap="round"/>
<path d="M1188.12 21.05C1188.12 19.67 1186.63 18.55 1184.79 18.55C1182.95 18.55 1181.46 19.67 1181.46 21.05C1181.46 22.43 1182.95 23.55 1184.79 23.55" fill="#0C1D2D"/>
<path d="M1188.12 21.05C1188.12 19.67 1186.63 18.55 1184.79 18.55C1182.95 18.55 1181.46 19.67 1181.46 21.05C1181.46 22.43 1182.95 23.55 1184.79 23.55" stroke="#1F4ED8" stroke-width="1.4" stroke-miterlimit="10" stroke-linecap="round"/>
<path d="M733.5 86.7101C727.99 86.7101 723.5 82.2201 723.5 76.7101C723.5 71.2001 727.99 66.7101 733.5 66.7101C739.01 66.7101 743.5 71.2001 743.5 76.7101C743.5 82.2201 739.01 86.7101 733.5 86.7101Z" fill="#0C1D2D" stroke="#1F4ED8" stroke-width="1.4" stroke-miterlimit="10" stroke-linecap="round"/>
<path d="M733.5 70.04V83.38Z" fill="#0C1D2D"/>
<path d="M733.5 70.04V83.38" stroke="#1F4ED8" stroke-width="1.4" stroke-miterlimit="10" stroke-linecap="round"/>
<path d="M733.5 76.7101C735.34 76.7101 736.83 77.8301 736.83 79.2101C736.83 80.5901 735.34 81.7101 733.5 81.7101C731.66 81.7101 730.17 80.5901 730.17 79.2101" fill="#0C1D2D"/>
<path d="M733.5 76.7101C735.34 76.7101 736.83 77.8301 736.83 79.2101C736.83 80.5901 735.34 81.7101 733.5 81.7101C731.66 81.7101 730.17 80.5901 730.17 79.2101" stroke="#1F4ED8" stroke-width="1.4" stroke-miterlimit="10" stroke-linecap="round"/>
<path d="M736.83 74.2101C736.83 72.8301 735.34 71.7101 733.5 71.7101C731.66 71.7101 730.17 72.8301 730.17 74.2101C730.17 75.5901 731.66 76.7101 733.5 76.7101" fill="#0C1D2D"/>
<path d="M736.83 74.2101C736.83 72.8301 735.34 71.7101 733.5 71.7101C731.66 71.7101 730.17 72.8301 730.17 74.2101C730.17 75.5901 731.66 76.7101 733.5 76.7101" stroke="#1F4ED8" stroke-width="1.4" stroke-miterlimit="10" stroke-linecap="round"/>
<path d="M282 93.38C276.49 93.38 272 88.89 272 83.38C272 77.87 276.49 73.38 282 73.38C287.51 73.38 292 77.87 292 83.38C292 88.89 287.51 93.38 282 93.38Z" fill="#0C1D2D" stroke="#1F4ED8" stroke-width="1.4" stroke-miterlimit="10" stroke-linecap="round"/>
<path d="M282 76.7101V90.0501Z" fill="#0C1D2D"/>
<path d="M282 76.7101V90.0501" stroke="#1F4ED8" stroke-width="1.4" stroke-miterlimit="10" stroke-linecap="round"/>
<path d="M282 83.3701C283.84 83.3701 285.33 84.4901 285.33 85.8701C285.33 87.2501 283.84 88.3701 282 88.3701C280.16 88.3701 278.67 87.2501 278.67 85.8701" fill="#0C1D2D"/>
<path d="M282 83.3701C283.84 83.3701 285.33 84.4901 285.33 85.8701C285.33 87.2501 283.84 88.3701 282 88.3701C280.16 88.3701 278.67 87.2501 278.67 85.8701" stroke="#1F4ED8" stroke-width="1.4" stroke-miterlimit="10" stroke-linecap="round"/>
<path d="M285.33 80.8701C285.33 79.4901 283.84 78.3701 282 78.3701C280.16 78.3701 278.67 79.4901 278.67 80.8701C278.67 82.2501 280.16 83.3701 282 83.3701" fill="#0C1D2D"/>
<path d="M285.33 80.8701C285.33 79.4901 283.84 78.3701 282 78.3701C280.16 78.3701 278.67 79.4901 278.67 80.8701C278.67 82.2501 280.16 83.3701 282 83.3701" stroke="#1F4ED8" stroke-width="1.4" stroke-miterlimit="10" stroke-linecap="round"/>
<path d="M1277 411.43C1272.59 411.43 1269 407.84 1269 403.43C1269 399.02 1272.59 395.43 1277 395.43C1281.41 395.43 1285 399.02 1285 403.43C1285 407.84 1281.41 411.43 1277 411.43Z" fill="#0C1D2D" stroke="#1F4ED8" stroke-width="1.4" stroke-miterlimit="10" stroke-linecap="round"/>
<path d="M1277 398.09V408.76Z" fill="#0C1D2D"/>
<path d="M1277 398.09V408.76" stroke="#1F4ED8" stroke-width="1.4" stroke-miterlimit="10" stroke-linecap="round"/>
<path d="M1277 403.42C1278.47 403.42 1279.67 404.32 1279.67 405.42C1279.67 406.52 1278.48 407.42 1277 407.42C1275.52 407.42 1274.33 406.52 1274.33 405.42" fill="#0C1D2D"/>
<path d="M1277 403.42C1278.47 403.42 1279.67 404.32 1279.67 405.42C1279.67 406.52 1278.48 407.42 1277 407.42C1275.52 407.42 1274.33 406.52 1274.33 405.42" stroke="#1F4ED8" stroke-width="1.4" stroke-miterlimit="10" stroke-linecap="round"/>
<path d="M1279.67 401.42C1279.67 400.32 1278.48 399.42 1277 399.42C1275.52 399.42 1274.33 400.32 1274.33 401.42C1274.33 402.52 1275.52 403.42 1277 403.42" fill="#0C1D2D"/>
<path d="M1279.67 401.42C1279.67 400.32 1278.48 399.42 1277 399.42C1275.52 399.42 1274.33 400.32 1274.33 401.42C1274.33 402.52 1275.52 403.42 1277 403.42" stroke="#1F4ED8" stroke-width="1.4" stroke-miterlimit="10" stroke-linecap="round"/>
<path d="M367 301.82C362.59 301.82 359 298.23 359 293.82C359 289.41 362.59 285.82 367 285.82C371.41 285.82 375 289.41 375 293.82C375 298.23 371.41 301.82 367 301.82Z" fill="#0C1D2D" stroke="#1F4ED8" stroke-width="1.4" stroke-miterlimit="10" stroke-linecap="round"/>
<path d="M367 288.48V299.15Z" fill="#0C1D2D"/>
<path d="M367 288.48V299.15" stroke="#1F4ED8" stroke-width="1.4" stroke-miterlimit="10" stroke-linecap="round"/>
<path d="M367 293.82C368.47 293.82 369.67 294.72 369.67 295.82C369.67 296.92 368.48 297.82 367 297.82C365.52 297.82 364.33 296.92 364.33 295.82" fill="#0C1D2D"/>
<path d="M367 293.82C368.47 293.82 369.67 294.72 369.67 295.82C369.67 296.92 368.48 297.82 367 297.82C365.52 297.82 364.33 296.92 364.33 295.82" stroke="#1F4ED8" stroke-width="1.4" stroke-miterlimit="10" stroke-linecap="round"/>
<path d="M369.67 291.82C369.67 290.72 368.48 289.82 367 289.82C365.52 289.82 364.33 290.72 364.33 291.82C364.33 292.92 365.52 293.82 367 293.82" fill="#0C1D2D"/>
<path d="M369.67 291.82C369.67 290.72 368.48 289.82 367 289.82C365.52 289.82 364.33 290.72 364.33 291.82C364.33 292.92 365.52 293.82 367 293.82" stroke="#1F4ED8" stroke-width="1.4" stroke-miterlimit="10" stroke-linecap="round"/>
<path d="M84.2402 301.82C79.8302 301.82 76.2402 298.23 76.2402 293.82C76.2402 289.41 79.8302 285.82 84.2402 285.82C88.6502 285.82 92.2402 289.41 92.2402 293.82C92.2402 298.23 88.6502 301.82 84.2402 301.82Z" fill="#0C1D2D" stroke="#1F4ED8" stroke-width="1.4" stroke-miterlimit="10" stroke-linecap="round"/>
<path d="M84.2402 288.48V299.15Z" fill="#0C1D2D"/>
<path d="M84.2402 288.48V299.15" stroke="#1F4ED8" stroke-width="1.4" stroke-miterlimit="10" stroke-linecap="round"/>
<path d="M84.2403 293.82C85.7103 293.82 86.9103 294.72 86.9103 295.82C86.9103 296.92 85.7203 297.82 84.2403 297.82C82.7603 297.82 81.5703 296.92 81.5703 295.82" fill="#0C1D2D"/>
<path d="M84.2403 293.82C85.7103 293.82 86.9103 294.72 86.9103 295.82C86.9103 296.92 85.7203 297.82 84.2403 297.82C82.7603 297.82 81.5703 296.92 81.5703 295.82" stroke="#1F4ED8" stroke-width="1.4" stroke-miterlimit="10" stroke-linecap="round"/>
<path d="M86.9006 291.82C86.9006 290.72 85.7106 289.82 84.2306 289.82C82.7506 289.82 81.5605 290.72 81.5605 291.82C81.5605 292.92 82.7506 293.82 84.2306 293.82" fill="#0C1D2D"/>
<path d="M86.9006 291.82C86.9006 290.72 85.7106 289.82 84.2306 289.82C82.7506 289.82 81.5605 290.72 81.5605 291.82C81.5605 292.92 82.7506 293.82 84.2306 293.82" stroke="#1F4ED8" stroke-width="1.4" stroke-miterlimit="10" stroke-linecap="round"/>
<path d="M375 424.27C370.59 424.27 367 420.68 367 416.27C367 411.86 370.59 408.27 375 408.27C379.41 408.27 383 411.86 383 416.27C383 420.68 379.41 424.27 375 424.27Z" fill="#0C1D2D" stroke="#1F4ED8" stroke-width="1.4" stroke-miterlimit="10" stroke-linecap="round"/>
<path d="M375 410.93V421.6Z" fill="#0C1D2D"/>
<path d="M375 410.93V421.6" stroke="#1F4ED8" stroke-width="1.4" stroke-miterlimit="10" stroke-linecap="round"/>
<path d="M375 416.27C376.47 416.27 377.67 417.17 377.67 418.27C377.67 419.37 376.48 420.27 375 420.27C373.52 420.27 372.33 419.37 372.33 418.27" fill="#0C1D2D"/>
<path d="M375 416.27C376.47 416.27 377.67 417.17 377.67 418.27C377.67 419.37 376.48 420.27 375 420.27C373.52 420.27 372.33 419.37 372.33 418.27" stroke="#1F4ED8" stroke-width="1.4" stroke-miterlimit="10" stroke-linecap="round"/>
<path d="M377.67 414.27C377.67 413.17 376.48 412.27 375 412.27C373.52 412.27 372.33 413.17 372.33 414.27C372.33 415.37 373.52 416.27 375 416.27" fill="#0C1D2D"/>
<path d="M377.67 414.27C377.67 413.17 376.48 412.27 375 412.27C373.52 412.27 372.33 413.17 372.33 414.27C372.33 415.37 373.52 416.27 375 416.27" stroke="#1F4ED8" stroke-width="1.4" stroke-miterlimit="10" stroke-linecap="round"/>
<path d="M707.859 445.99C703.449 445.99 699.859 442.4 699.859 437.99C699.859 433.58 703.449 429.99 707.859 429.99C712.269 429.99 715.859 433.58 715.859 437.99C715.859 442.4 712.269 445.99 707.859 445.99Z" fill="#0C1D2D" stroke="#1F4ED8" stroke-width="1.4" stroke-miterlimit="10" stroke-linecap="round"/>
<path d="M707.859 432.65V443.32Z" fill="#0C1D2D"/>
<path d="M707.859 432.65V443.32" stroke="#1F4ED8" stroke-width="1.4" stroke-miterlimit="10" stroke-linecap="round"/>
<path d="M707.859 437.99C709.329 437.99 710.529 438.89 710.529 439.99C710.529 441.09 709.339 441.99 707.859 441.99C706.379 441.99 705.189 441.09 705.189 439.99" fill="#0C1D2D"/>
<path d="M707.859 437.99C709.329 437.99 710.529 438.89 710.529 439.99C710.529 441.09 709.339 441.99 707.859 441.99C706.379 441.99 705.189 441.09 705.189 439.99" stroke="#1F4ED8" stroke-width="1.4" stroke-miterlimit="10" stroke-linecap="round"/>
<path d="M710.529 435.99C710.529 434.89 709.339 433.99 707.859 433.99C706.379 433.99 705.189 434.89 705.189 435.99C705.189 437.09 706.379 437.99 707.859 437.99" fill="#0C1D2D"/>
<path d="M710.529 435.99C710.529 434.89 709.339 433.99 707.859 433.99C706.379 433.99 705.189 434.89 705.189 435.99C705.189 437.09 706.379 437.99 707.859 437.99" stroke="#1F4ED8" stroke-width="1.4" stroke-miterlimit="10" stroke-linecap="round"/>
<path d="M526.439 57.3401C522.029 57.3401 518.439 53.7501 518.439 49.3401C518.439 44.9301 522.029 41.3401 526.439 41.3401C530.849 41.3401 534.439 44.9301 534.439 49.3401C534.439 53.7501 530.849 57.3401 526.439 57.3401Z" fill="#0C1D2D" stroke="#1F4ED8" stroke-width="1.4" stroke-miterlimit="10" stroke-linecap="round"/>
<path d="M526.439 44V54.67Z" fill="#0C1D2D"/>
<path d="M526.439 44V54.67" stroke="#1F4ED8" stroke-width="1.4" stroke-miterlimit="10" stroke-linecap="round"/>
<path d="M526.44 49.3301C527.91 49.3301 529.109 50.2301 529.109 51.3301C529.109 52.4301 527.92 53.3301 526.44 53.3301C524.96 53.3301 523.77 52.4301 523.77 51.3301" fill="#0C1D2D"/>
<path d="M526.44 49.3301C527.91 49.3301 529.109 50.2301 529.109 51.3301C529.109 52.4301 527.92 53.3301 526.44 53.3301C524.96 53.3301 523.77 52.4301 523.77 51.3301" stroke="#1F4ED8" stroke-width="1.4" stroke-miterlimit="10" stroke-linecap="round"/>
<path d="M529.1 47.3301C529.1 46.2301 527.91 45.3301 526.43 45.3301C524.95 45.3301 523.76 46.2301 523.76 47.3301C523.76 48.4301 524.95 49.3301 526.43 49.3301" fill="#0C1D2D"/>
<path d="M529.1 47.3301C529.1 46.2301 527.91 45.3301 526.43 45.3301C524.95 45.3301 523.76 46.2301 523.76 47.3301C523.76 48.4301 524.95 49.3301 526.43 49.3301" stroke="#1F4ED8" stroke-width="1.4" stroke-miterlimit="10" stroke-linecap="round"/>
<path d="M1561.83 239.51C1557.42 239.51 1553.83 235.92 1553.83 231.51C1553.83 227.1 1557.42 223.51 1561.83 223.51C1566.24 223.51 1569.83 227.1 1569.83 231.51C1569.83 235.92 1566.24 239.51 1561.83 239.51Z" fill="#0C1D2D" stroke="#1F4ED8" stroke-width="1.4" stroke-miterlimit="10" stroke-linecap="round"/>
<path d="M1561.83 226.17V236.84Z" fill="#0C1D2D"/>
<path d="M1561.83 226.17V236.84" stroke="#1F4ED8" stroke-width="1.4" stroke-miterlimit="10" stroke-linecap="round"/>
<path d="M1561.83 231.5C1563.3 231.5 1564.5 232.4 1564.5 233.5C1564.5 234.6 1563.31 235.5 1561.83 235.5C1560.35 235.5 1559.16 234.6 1559.16 233.5" fill="#0C1D2D"/>
<path d="M1561.83 231.5C1563.3 231.5 1564.5 232.4 1564.5 233.5C1564.5 234.6 1563.31 235.5 1561.83 235.5C1560.35 235.5 1559.16 234.6 1559.16 233.5" stroke="#1F4ED8" stroke-width="1.4" stroke-miterlimit="10" stroke-linecap="round"/>
<path d="M1564.5 229.5C1564.5 228.4 1563.31 227.5 1561.83 227.5C1560.35 227.5 1559.16 228.4 1559.16 229.5C1559.16 230.6 1560.35 231.5 1561.83 231.5" fill="#0C1D2D"/>
<path d="M1564.5 229.5C1564.5 228.4 1563.31 227.5 1561.83 227.5C1560.35 227.5 1559.16 228.4 1559.16 229.5C1559.16 230.6 1560.35 231.5 1561.83 231.5" stroke="#1F4ED8" stroke-width="1.4" stroke-miterlimit="10" stroke-linecap="round"/>
<path d="M1409.74 309.98C1404.23 309.98 1399.74 305.49 1399.74 299.98C1399.74 294.47 1404.23 289.98 1409.74 289.98C1415.25 289.98 1419.74 294.47 1419.74 299.98C1419.74 305.49 1415.25 309.98 1409.74 309.98Z" fill="#0C1D2D" stroke="#1F4ED8" stroke-width="1.4" stroke-miterlimit="10" stroke-linecap="round"/>
<path d="M1409.74 293.31V306.65Z" fill="#0C1D2D"/>
<path d="M1409.74 293.31V306.65" stroke="#1F4ED8" stroke-width="1.4" stroke-miterlimit="10" stroke-linecap="round"/>
<path d="M1409.74 299.97C1411.58 299.97 1413.07 301.09 1413.07 302.47C1413.07 303.85 1411.58 304.97 1409.74 304.97C1407.9 304.97 1406.41 303.85 1406.41 302.47" fill="#0C1D2D"/>
<path d="M1409.74 299.97C1411.58 299.97 1413.07 301.09 1413.07 302.47C1413.07 303.85 1411.58 304.97 1409.74 304.97C1407.9 304.97 1406.41 303.85 1406.41 302.47" stroke="#1F4ED8" stroke-width="1.4" stroke-miterlimit="10" stroke-linecap="round"/>
<path d="M1413.07 297.47C1413.07 296.09 1411.58 294.97 1409.74 294.97C1407.9 294.97 1406.41 296.09 1406.41 297.47C1406.41 298.85 1407.9 299.97 1409.74 299.97" fill="#0C1D2D"/>
<path d="M1413.07 297.47C1413.07 296.09 1411.58 294.97 1409.74 294.97C1407.9 294.97 1406.41 296.09 1406.41 297.47C1406.41 298.85 1407.9 299.97 1409.74 299.97" stroke="#1F4ED8" stroke-width="1.4" stroke-miterlimit="10" stroke-linecap="round"/>
<path d="M1454.63 83.76C1449.12 83.76 1444.63 79.27 1444.63 73.76C1444.63 68.25 1449.12 63.76 1454.63 63.76C1460.14 63.76 1464.63 68.25 1464.63 73.76C1464.63 79.27 1460.14 83.76 1454.63 83.76Z" fill="#0C1D2D" stroke="#1F4ED8" stroke-width="1.4" stroke-miterlimit="10" stroke-linecap="round"/>
<path d="M1454.63 67.0801V80.4201Z" fill="#0C1D2D"/>
<path d="M1454.63 67.0801V80.4201" stroke="#1F4ED8" stroke-width="1.4" stroke-miterlimit="10" stroke-linecap="round"/>
<path d="M1454.63 73.75C1456.47 73.75 1457.96 74.87 1457.96 76.25C1457.96 77.63 1456.47 78.75 1454.63 78.75C1452.79 78.75 1451.3 77.63 1451.3 76.25" fill="#0C1D2D"/>
<path d="M1454.63 73.75C1456.47 73.75 1457.96 74.87 1457.96 76.25C1457.96 77.63 1456.47 78.75 1454.63 78.75C1452.79 78.75 1451.3 77.63 1451.3 76.25" stroke="#1F4ED8" stroke-width="1.4" stroke-miterlimit="10" stroke-linecap="round"/>
<path d="M1457.97 71.25C1457.97 69.87 1456.48 68.75 1454.64 68.75C1452.8 68.75 1451.31 69.87 1451.31 71.25C1451.31 72.63 1452.8 73.75 1454.64 73.75" fill="#0C1D2D"/>
<path d="M1457.97 71.25C1457.97 69.87 1456.48 68.75 1454.64 68.75C1452.8 68.75 1451.31 69.87 1451.31 71.25C1451.31 72.63 1452.8 73.75 1454.64 73.75" stroke="#1F4ED8" stroke-width="1.4" stroke-miterlimit="10" stroke-linecap="round"/>
<path d="M1533.75 336.61C1528.24 336.61 1523.75 332.12 1523.75 326.61C1523.75 321.1 1528.24 316.61 1533.75 316.61C1539.26 316.61 1543.75 321.1 1543.75 326.61C1543.75 332.12 1539.26 336.61 1533.75 336.61Z" fill="#0C1D2D" stroke="#1F4ED8" stroke-width="1.4" stroke-miterlimit="10" stroke-linecap="round"/>
<path d="M1533.75 319.94V333.28Z" fill="#0C1D2D"/>
<path d="M1533.75 319.94V333.28" stroke="#1F4ED8" stroke-width="1.4" stroke-miterlimit="10" stroke-linecap="round"/>
<path d="M1533.75 326.6C1535.59 326.6 1537.08 327.72 1537.08 329.1C1537.08 330.48 1535.59 331.6 1533.75 331.6C1531.91 331.6 1530.42 330.48 1530.42 329.1" fill="#0C1D2D"/>
<path d="M1533.75 326.6C1535.59 326.6 1537.08 327.72 1537.08 329.1C1537.08 330.48 1535.59 331.6 1533.75 331.6C1531.91 331.6 1530.42 330.48 1530.42 329.1" stroke="#1F4ED8" stroke-width="1.4" stroke-miterlimit="10" stroke-linecap="round"/>
<path d="M1537.08 324.1C1537.08 322.72 1535.59 321.6 1533.75 321.6C1531.91 321.6 1530.42 322.72 1530.42 324.1C1530.42 325.48 1531.91 326.6 1533.75 326.6" fill="#0C1D2D"/>
<path d="M1537.08 324.1C1537.08 322.72 1535.59 321.6 1533.75 321.6C1531.91 321.6 1530.42 322.72 1530.42 324.1C1530.42 325.48 1531.91 326.6 1533.75 326.6" stroke="#1F4ED8" stroke-width="1.4" stroke-miterlimit="10" stroke-linecap="round"/>
<path d="M1364.33 38.5601C1358.82 38.5601 1354.33 34.0701 1354.33 28.5601C1354.33 23.0501 1358.82 18.5601 1364.33 18.5601C1369.84 18.5601 1374.33 23.0501 1374.33 28.5601C1374.33 34.0701 1369.84 38.5601 1364.33 38.5601Z" fill="#0C1D2D" stroke="#1F4ED8" stroke-width="1.4" stroke-miterlimit="10" stroke-linecap="round"/>
<path d="M1364.33 21.88V35.22Z" fill="#0C1D2D"/>
<path d="M1364.33 21.88V35.22" stroke="#1F4ED8" stroke-width="1.4" stroke-miterlimit="10" stroke-linecap="round"/>
<path d="M1364.33 28.55C1366.17 28.55 1367.66 29.67 1367.66 31.05C1367.66 32.43 1366.17 33.55 1364.33 33.55C1362.49 33.55 1361 32.43 1361 31.05" fill="#0C1D2D"/>
<path d="M1364.33 28.55C1366.17 28.55 1367.66 29.67 1367.66 31.05C1367.66 32.43 1366.17 33.55 1364.33 33.55C1362.49 33.55 1361 32.43 1361 31.05" stroke="#1F4ED8" stroke-width="1.4" stroke-miterlimit="10" stroke-linecap="round"/>
<path d="M1367.67 26.05C1367.67 24.67 1366.18 23.55 1364.34 23.55C1362.5 23.55 1361.01 24.67 1361.01 26.05C1361.01 27.43 1362.5 28.55 1364.34 28.55" fill="#0C1D2D"/>
<path d="M1367.67 26.05C1367.67 24.67 1366.18 23.55 1364.34 23.55C1362.5 23.55 1361.01 24.67 1361.01 26.05C1361.01 27.43 1362.5 28.55 1364.34 28.55" stroke="#1F4ED8" stroke-width="1.4" stroke-miterlimit="10" stroke-linecap="round"/>
<path d="M1719 220.45C1713.49 220.45 1709 215.96 1709 210.45C1709 204.94 1713.49 200.45 1719 200.45C1724.51 200.45 1729 204.94 1729 210.45C1729 215.96 1724.51 220.45 1719 220.45Z" fill="#0C1D2D" stroke="#1F4ED8" stroke-width="1.4" stroke-miterlimit="10" stroke-linecap="round"/>
<path d="M1719 203.78V217.12Z" fill="#0C1D2D"/>
<path d="M1719 203.78V217.12" stroke="#1F4ED8" stroke-width="1.4" stroke-miterlimit="10" stroke-linecap="round"/>
<path d="M1719 210.45C1720.84 210.45 1722.33 211.57 1722.33 212.95C1722.33 214.33 1720.84 215.45 1719 215.45C1717.16 215.45 1715.67 214.33 1715.67 212.95" fill="#0C1D2D"/>
<path d="M1719 210.45C1720.84 210.45 1722.33 211.57 1722.33 212.95C1722.33 214.33 1720.84 215.45 1719 215.45C1717.16 215.45 1715.67 214.33 1715.67 212.95" stroke="#1F4ED8" stroke-width="1.4" stroke-miterlimit="10" stroke-linecap="round"/>
<path d="M1722.33 207.95C1722.33 206.57 1720.84 205.45 1719 205.45C1717.16 205.45 1715.67 206.57 1715.67 207.95C1715.67 209.33 1717.16 210.45 1719 210.45" fill="#0C1D2D"/>
<path d="M1722.33 207.95C1722.33 206.57 1720.84 205.45 1719 205.45C1717.16 205.45 1715.67 206.57 1715.67 207.95C1715.67 209.33 1717.16 210.45 1719 210.45" stroke="#1F4ED8" stroke-width="1.4" stroke-miterlimit="10" stroke-linecap="round"/>
</g>
<defs>
<clipPath id="clip0_66_301">
<rect width="1920" height="480" fill="white"/>
</clipPath>
</defs>
</svg>
