<svg width="60" height="128" viewBox="0 0 60 128" fill="none" xmlns="http://www.w3.org/2000/svg">
<path d="M12 70.1802V61.9702C12 61.4202 12.45 60.9702 13 60.9702H17C17.55 60.9702 18 61.4202 18 61.9702V62.9002" stroke="#1F4ED8" stroke-width="2" stroke-linejoin="round"/>
<path d="M22 60.6102V51.9702C22 51.4202 22.45 50.9702 23 50.9702H27C27.55 50.9702 28 51.4202 28 51.9702V59.0002" stroke="#1F4ED8" stroke-width="2" stroke-linejoin="round"/>
<path d="M32 58.9002V48.9702C32 48.4202 32.45 47.9702 33 47.9702H37C37.55 47.9702 38 48.4202 38 48.9702V60.6102" stroke="#1F4ED8" stroke-width="2" stroke-linejoin="round"/>
<path d="M42 62.9002V35.9702C42 35.4202 42.45 34.9702 43 34.9702H47C47.55 34.9702 48 35.4202 48 35.9702V69.9702" stroke="#1F4ED8" stroke-width="2" stroke-linejoin="round"/>
<path d="M15.33 78.9904C15.36 83.0004 16.99 86.6304 19.63 89.2604L15.86 93.0304C12.24 89.4104 10 84.4104 10 78.8904H15.33V78.9804V78.9904ZM30 64.2304C25.95 64.2304 22.29 65.8704 19.63 68.5304L15.86 64.7604C19.48 61.1404 24.48 58.9004 30 58.9004V64.2304Z" stroke="#1F4ED8" stroke-width="2" stroke-linejoin="round"/>
<path d="M15.86 64.7603L19.63 68.5303C16.98 71.1803 15.33 74.8503 15.33 78.9003H10C10 73.3803 12.24 68.3803 15.86 64.7603Z" stroke="#1F4ED8" stroke-width="2" stroke-linejoin="round"/>
<path d="M44.67 78.9904C44.64 83.0004 43.01 86.6304 40.37 89.2604L44.14 93.0304C47.76 89.4104 50 84.4104 50 78.8904H44.67V78.9804V78.9904ZM30 64.2304C34.05 64.2304 37.71 65.8704 40.37 68.5304L44.14 64.7604C40.52 61.1404 35.52 58.9004 30 58.9004V64.2304Z" stroke="#1F4ED8" stroke-width="2" stroke-linejoin="round"/>
<path d="M44.1391 64.7603L40.3691 68.5303C43.0191 71.1803 44.6691 74.8503 44.6691 78.9003H49.9991C49.9991 73.3803 47.7591 68.3803 44.1391 64.7603Z" stroke="#1F4ED8" stroke-width="2" stroke-linejoin="round"/>
<path d="M32.3596 80.1406C31.6796 81.4406 30.0596 81.9406 28.7596 81.2606C27.4596 80.5806 26.9596 78.9606 27.6396 77.6606C28.8796 75.3006 38.0896 64.1406 38.0896 64.1406C38.0896 64.1406 33.5996 77.7806 32.3596 80.1406Z" stroke="#1F4ED8" stroke-width="2" stroke-linejoin="round"/>
</svg>
