<svg width="60" height="128" viewBox="0 0 60 128" fill="none" xmlns="http://www.w3.org/2000/svg">
<path d="M19 62H14C12.8954 62 12 62.8954 12 64V69C12 70.1046 12.8954 71 14 71H19C20.1046 71 21 70.1046 21 69V64C21 62.8954 20.1046 62 19 62Z" stroke="#1F4ED8" stroke-width="2" stroke-linejoin="round"/>
<path d="M46 89H41C39.8954 89 39 89.8954 39 91V96C39 97.1046 39.8954 98 41 98H46C47.1046 98 48 97.1046 48 96V91C48 89.8954 47.1046 89 46 89Z" stroke="#1F4ED8" stroke-width="2" stroke-linejoin="round"/>
<path d="M32.5 75H27.5C26.3954 75 25.5 75.8954 25.5 77V82C25.5 83.1046 26.3954 84 27.5 84H32.5C33.6046 84 34.5 83.1046 34.5 82V77C34.5 75.8954 33.6046 75 32.5 75Z" stroke="#1F4ED8" stroke-width="2" stroke-linejoin="round"/>
<path d="M21 66H44C46.21 66 48 67.79 48 70V76C48 78.21 46.21 80 44 80H34.42" stroke="#1F4ED8" stroke-width="2" stroke-linejoin="round"/>
<path d="M25.5 80H16C13.79 80 12 81.79 12 84V90C12 92.21 13.79 94 16 94H39" stroke="#1F4ED8" stroke-width="2" stroke-linejoin="round"/>
<path d="M41 51V57C41 59.21 36.08 61 30 61C23.92 61 19 59.21 19 57V51" stroke="#1F4ED8" stroke-width="2" stroke-linejoin="round"/>
<path d="M30 50C34.4183 50 38 46.4183 38 42C38 37.5817 34.4183 34 30 34C25.5817 34 22 37.5817 22 42C22 46.4183 25.5817 50 30 50Z" stroke="#1F4ED8" stroke-width="2" stroke-linejoin="round"/>
<path d="M35.72 47.5801C38.89 48.2801 41 49.5501 41 51.0001C41 53.2101 36.08 55.0001 30 55.0001C23.92 55.0001 19 53.2101 19 51.0001C19 49.5301 21.17 48.2501 24.4 47.5601" stroke="#1F4ED8" stroke-width="2" stroke-linejoin="round"/>
<path d="M32.2091 39.8699C31.4591 39.4699 29.3791 37.8699 28.5391 39.9999C27.6991 42.1299 32.3091 42.1399 31.5791 44.1199C30.8791 46.0199 28.7591 45.1199 27.5391 44.5699" stroke="#1F4ED8" stroke-width="2" stroke-linejoin="round"/>
<path d="M30 37.2002V38.9202" stroke="#1F4ED8" stroke-width="2" stroke-linejoin="round"/>
<path d="M30 47.4V45.27" stroke="#1F4ED8" stroke-width="2" stroke-linejoin="round"/>
</svg>
