<svg width="60" height="128" viewBox="0 0 60 128" fill="none" xmlns="http://www.w3.org/2000/svg">
<path d="M19.7793 46.0402L12.5893 47.4802C12.0293 47.5902 11.8193 48.2902 12.2193 48.6902L13.1593 49.6302C6.04934 57.0802 4.94934 68.5702 10.6093 77.2502L11.6393 78.8302C12.6893 80.4402 15.1593 79.9702 15.5593 78.1002C15.6793 77.5402 15.5693 76.9602 15.2593 76.4802L14.2293 74.9002C9.67934 67.9202 10.5393 58.6902 16.2193 52.6802L17.2593 53.7202C17.6393 54.1002 18.2793 53.9502 18.4493 53.4402L20.6093 46.9702C20.7793 46.4502 20.3293 45.9302 19.7893 46.0402H19.7793Z" stroke="#1F4ED8" stroke-width="2" stroke-linejoin="round"/>
<path d="M51.0694 69C50.0094 68.46 48.7093 68.89 48.1693 69.95L47.3194 71.63C43.5494 79.06 35.1293 82.93 27.0893 81.01L27.4694 79.59C27.6094 79.07 27.1594 78.59 26.6294 78.7L19.9494 80.07C19.4094 80.18 19.1894 80.83 19.5494 81.25L24.3893 86.76C24.7693 87.19 25.4794 87.03 25.6194 86.47L25.9694 85.18C35.9394 87.61 46.4693 82.85 51.1693 73.58L52.0193 71.9C52.5593 70.83 52.1294 69.54 51.0694 69Z" stroke="#1F4ED8" stroke-width="2" stroke-linejoin="round"/>
<path d="M52.0894 56.7002L50.7994 57.0502C47.9094 47.1702 38.4994 40.4702 28.1494 41.0302L26.2694 41.1302C25.0694 41.2002 24.1694 42.2202 24.2294 43.4002C24.2994 44.5902 25.3194 45.5002 26.4994 45.4402L28.3794 45.3402C36.6994 44.8902 44.2594 50.2502 46.6194 58.1702L45.1994 58.5502C44.6794 58.6902 44.4894 59.3202 44.8494 59.7202L49.3694 64.8202C49.7394 65.2302 50.4094 65.1002 50.5894 64.5702L52.9394 57.6302C53.1194 57.0902 52.6294 56.5602 52.0694 56.7102L52.0894 56.7002Z" stroke="#1F4ED8" stroke-width="2" stroke-linejoin="round"/>
<path d="M32 55.4404H28V73.4404H32V55.4404Z" stroke="#1F4ED8" stroke-width="2" stroke-linejoin="round"/>
<path d="M24 59.4404H20V69.4404H24V59.4404Z" stroke="#1F4ED8" stroke-width="2" stroke-linejoin="round"/>
<path d="M40 61.4404H36V67.4404H40V61.4404Z" stroke="#1F4ED8" stroke-width="2" stroke-linejoin="round"/>
</svg>
