<svg width="160" height="27" viewBox="0 0 160 27" fill="none" xmlns="http://www.w3.org/2000/svg">
<path d="M39.824 21.3391H42.9716V9.12834H47.0894V6.18237H35.7493V9.12834H39.824V21.3391Z" fill="white"/>
<path d="M47.094 21.3391H50.0476V16.2371C50.0476 14.4652 50.9746 13.3978 52.376 13.3978C52.8718 13.3978 53.2599 13.4832 53.7127 13.6327V10.6653C53.3462 10.5586 53.0443 10.5372 52.7209 10.5372C51.5136 10.5372 50.4141 11.3271 50.0476 12.3731V10.6653H47.094V21.3391Z" fill="white"/>
<path d="M59.3818 21.574C60.8695 21.574 61.9905 20.8268 62.4865 20.1437V21.3392H65.4401V10.6653H62.4865V11.8608C61.9905 11.1777 60.8695 10.4305 59.3818 10.4305C56.5145 10.4305 54.3154 12.9923 54.3154 16.0022C54.3154 19.0122 56.5145 21.574 59.3818 21.574ZM60.0071 18.9055C58.3686 18.9055 57.2906 17.6887 57.2906 16.0022C57.2906 14.3158 58.3686 13.099 60.0071 13.099C61.6456 13.099 62.7236 14.3158 62.7236 16.0022C62.7236 17.6887 61.6456 18.9055 60.0071 18.9055Z" fill="white"/>
<path d="M72.4724 21.574C73.96 21.574 75.081 20.8268 75.5769 20.1437V21.3392H78.5306V5.32849H75.5769V11.8608C75.081 11.1777 73.96 10.4305 72.4724 10.4305C69.605 10.4305 67.406 12.9923 67.406 16.0022C67.406 19.0122 69.605 21.574 72.4724 21.574ZM73.0976 18.9055C71.4591 18.9055 70.3812 17.6887 70.3812 16.0022C70.3812 14.3158 71.4591 13.099 73.0976 13.099C74.7361 13.099 75.8141 14.3158 75.8141 16.0022C75.8141 17.6887 74.7361 18.9055 73.0976 18.9055Z" fill="white"/>
<path d="M82.6525 8.9149C83.7088 8.9149 84.5497 8.08235 84.5497 7.05767C84.5497 6.033 83.7088 5.20044 82.6525 5.20044C81.6391 5.20044 80.7769 6.033 80.7769 7.05767C80.7769 8.08235 81.6391 8.9149 82.6525 8.9149ZM81.1864 21.3392H84.14V10.6654H81.1864V21.3392Z" fill="white"/>
<path d="M86.7607 21.3392H89.7144V16.1304C89.7144 14.081 90.7276 13.099 92.1074 13.099C93.3363 13.099 94.0047 14.0382 94.0047 15.5753V21.3392H96.9583V15.0843C96.9583 12.3091 95.406 10.4305 92.7973 10.4305C91.396 10.4305 90.2964 11.0283 89.7144 11.8822V10.6653H86.7607V21.3392Z" fill="white"/>
<path d="M104.475 18.5639C102.987 18.5639 101.737 17.4539 101.737 15.8315C101.737 14.1877 102.987 13.099 104.475 13.099C105.962 13.099 107.213 14.1877 107.213 15.8315C107.213 17.4539 105.962 18.5639 104.475 18.5639ZM104.13 26.0142C107.428 26.0142 109.929 24.3491 109.929 20.5066V10.6653H106.975V11.8608C106.394 11.0283 105.229 10.4305 103.849 10.4305C101.025 10.4305 98.7615 12.8214 98.7615 15.8315C98.7615 18.8201 101.025 21.211 103.849 21.211C105.229 21.211 106.394 20.592 106.975 19.802V20.5279C106.975 22.2357 105.833 23.4525 104.087 23.4525C102.879 23.4525 101.672 23.0469 100.723 22.129L99.1064 24.3064C100.335 25.4805 102.254 26.0142 104.13 26.0142Z" fill="white"/>
<path d="M116.174 21.3391H118.955L125.293 6.18237H121.844L117.576 16.7067L113.242 6.18237H109.857L116.174 21.3391Z" fill="white"/>
<path d="M128.003 8.9149C129.06 8.9149 129.901 8.08235 129.901 7.05767C129.901 6.033 129.06 5.20044 128.003 5.20044C126.99 5.20044 126.128 6.033 126.128 7.05767C126.128 8.08235 126.99 8.9149 128.003 8.9149ZM126.538 21.3392H129.492V10.6654H126.538V21.3392Z" fill="white"/>
<path d="M137.135 21.574C139.4 21.574 141.124 20.6346 142.137 19.183L139.939 17.5606C139.442 18.3078 138.515 18.9055 137.157 18.9055C135.734 18.9055 134.462 18.1156 134.29 16.6854H142.352C142.417 16.2371 142.396 15.9382 142.396 15.6821C142.396 12.2023 139.916 10.4305 137.092 10.4305C133.816 10.4305 131.422 12.8428 131.422 16.0022C131.422 19.3752 133.923 21.574 137.135 21.574ZM134.397 14.7C134.678 13.3978 135.907 12.8428 137.006 12.8428C138.105 12.8428 139.183 13.4192 139.442 14.7H134.397Z" fill="white"/>
<path d="M153.461 21.3391H156.394L159.951 10.6653H156.782L154.756 17.4965L152.556 10.6653H150.292L148.115 17.4965L146.067 10.6653H142.919L146.498 21.3391H149.43L151.435 15.2764L153.461 21.3391Z" fill="white"/>
<path fill-rule="evenodd" clip-rule="evenodd" d="M11.9134 21.3464H6.24037V11.7969H0V6.17957H11.9134V21.3464ZM20.423 9.54996C20.423 11.4113 18.8991 12.9204 17.0192 12.9204C15.1393 12.9204 13.6154 11.4113 13.6154 9.54996C13.6154 7.68854 15.1393 6.17957 17.0192 6.17957C18.8991 6.17957 20.423 7.68854 20.423 9.54996ZM17.0192 21.3464L23.5432 6.17957H30.3509L23.8268 21.3464H17.0192Z" fill="white"/>
</svg>
