<svg width="3000" height="966" viewBox="0 0 3000 966" fill="none" xmlns="http://www.w3.org/2000/svg">
<path d="M1449.21 366.34H1294.44V741.5H1177.47V366.34H1022.7V263.63H1449.22V366.34H1449.21Z" fill="white"/>
<path d="M1728.8 568.19L1847.2 741.51H1715.96L1647.49 638.09L1578.31 741.51H1447.79L1565.47 568.19L1447.79 382.75H1578.31L1647.49 494.01L1715.96 382.75H1847.2L1728.8 568.19Z" fill="white"/>
<path d="M2402.8 383.46L2287.97 742.22H2188.83L2124.64 548.22L2059.74 742.22H1960.6L1845.77 383.46H1957.75L2016.24 576.03L2084 383.46H2164.6L2232.36 576.75L2290.84 383.46H2402.82H2402.8Z" fill="white"/>
<path d="M2575.41 372.76C2626.28 372.76 2666.35 385.13 2695.59 409.85C2724.83 434.58 2739.45 469.53 2739.45 514.7V741.51H2629.61V715.12C2600.6 739.85 2564.94 752.21 2522.62 752.21C2482.68 752.21 2450.46 741.51 2425.98 720.11C2401.48 698.71 2389.25 670.43 2389.25 635.23C2389.25 600.03 2402.32 571.4 2428.48 550.71C2454.62 530.03 2491.24 519.68 2538.32 519.68H2629.61V512.55C2629.61 497.82 2624.97 485.8 2615.7 476.53C2606.43 467.26 2594.18 462.62 2578.97 462.62C2544.26 462.62 2524.28 477.6 2519.06 507.55L2411.36 485.44C2419.44 450.74 2438.11 423.28 2467.35 403.06C2496.59 382.86 2532.61 372.75 2575.41 372.75V372.76ZM2554.73 666.61C2575.17 666.61 2592.77 660.44 2607.51 648.07C2622.24 635.71 2629.62 619.78 2629.62 600.28V592.44H2551.16C2536.9 592.44 2525.6 595.89 2517.28 602.78C2508.95 609.68 2504.8 618.59 2504.8 629.53C2504.8 640.47 2509.31 649.98 2518.35 656.63C2527.38 663.29 2539.5 666.61 2554.72 666.61H2554.73Z" fill="white"/>
<path d="M2794.38 383.47V741.47H2908.47V383.47H2794.38Z" fill="white"/>
<path d="M2917.75 277.88C2917.75 295.96 2911.46 311.04 2898.89 323.19C2886.26 335.28 2870.46 341.39 2851.42 341.39C2832.38 341.39 2816.7 335.28 2804.37 323.19C2791.98 311.04 2785.82 295.96 2785.82 277.88C2785.82 259.8 2791.99 244.48 2804.37 231.91C2816.7 219.28 2832.38 213 2851.42 213C2870.46 213 2886.26 219.4 2898.89 232.27C2911.46 245.08 2917.75 260.28 2917.75 277.88Z" fill="white"/>
<path d="M597.53 225.27L471.36 297.61H471.3L354.18 286.92C349.2 286.47 345.78 291.82 348.28 296.14L379.56 350.26L358.76 362.15L321.02 383.74L82.25 520.68V207.16L321.02 70.3301L597.53 225.27Z" fill="url(#paint0_linear_78_2)"/>
<path d="M836.3 88.4402V401.9L597.53 538.73L339.36 686.71C327.86 693.27 321.75 704.6 321.02 716.15V493.27C321.02 479.41 328.43 466.62 340.45 459.72L417.3 415.63L448.07 468.96C450.57 473.29 456.92 473 459.01 468.46L507.02 364.27L531.36 311.4C533.14 307.54 530.56 303.08 526.33 302.68L471.36 297.59L597.53 225.25L836.3 88.4202V88.4402Z" fill="url(#paint1_linear_78_2)"/>
<path d="M597.53 538.73V894.87L592.82 892.23L339.64 750.3C334.42 747.38 330.33 743.51 327.3 739.08C326.68 738.24 326.18 737.4 325.67 736.5C325.05 735.43 324.49 734.37 324.1 733.25C323.76 732.63 323.54 732.07 323.31 731.46C322.92 730.39 322.58 729.33 322.3 728.26C322.02 727.31 321.79 726.35 321.63 725.4C321.46 724.73 321.35 724 321.29 723.27C321.18 722.54 321.12 721.87 321.07 721.14C321.01 720.64 321.01 720.19 321.01 719.74V716.15C321.74 704.6 327.85 693.27 339.35 686.71L597.52 538.73H597.53Z" fill="url(#paint2_linear_78_2)"/>
<path d="M321.02 719.75C320.91 718.57 320.96 717.34 321.02 716.16Z" fill="#0A38FF"/>
<defs>
<linearGradient id="paint0_linear_78_2" x1="594.35" y1="295.5" x2="95.66" y2="295.5" gradientUnits="userSpaceOnUse">
<stop stop-color="#1F4ED8"/>
<stop offset="1" stop-color="#1F89FF"/>
</linearGradient>
<linearGradient id="paint1_linear_78_2" x1="947.83" y1="402.3" x2="352" y2="402.3" gradientUnits="userSpaceOnUse">
<stop stop-color="#1F4ED8"/>
<stop offset="1" stop-color="#1F89FF"/>
</linearGradient>
<linearGradient id="paint2_linear_78_2" x1="438.46" y1="608.78" x2="619.12" y2="836.57" gradientUnits="userSpaceOnUse">
<stop stop-color="#1F4ED8"/>
<stop offset="1" stop-color="#1F89FF"/>
</linearGradient>
</defs>
</svg>
